<svg width="43" height="43" viewBox="0 0 43 43" fill="none" xmlns="http://www.w3.org/2000/svg">
<path fill-rule="evenodd" clip-rule="evenodd" d="M34.3063 9.40626H9.55878L7.44429 5.61616C7.20695 5.19074 6.75796 4.92709 6.27081 4.92709H3.58331C2.84118 4.92709 2.23956 5.52871 2.23956 6.27084C2.23956 7.01298 2.84118 7.61459 3.58331 7.61459H5.48176L7.56851 11.355L12.3811 22.0033L12.386 22.0141L12.8099 22.952L7.97803 28.106C7.63061 28.4766 7.52185 29.0114 7.69695 29.4882C7.87206 29.9651 8.30108 30.3024 8.80577 30.3601L13.2099 30.8634C18.7187 31.493 24.2813 31.493 29.7901 30.8634L34.1943 30.3601C34.9316 30.2758 35.461 29.6098 35.3767 28.8724C35.2925 28.1351 34.6264 27.6057 33.8891 27.69L29.4849 28.1933C24.1789 28.7997 18.8211 28.7997 13.5151 28.1933L11.7673 27.9935L15.3137 24.2107C15.348 24.1741 15.3798 24.1361 15.4092 24.0969L16.758 24.2724C18.6481 24.5184 20.5587 24.5666 22.4587 24.4163C26.8904 24.0658 30.9976 21.957 33.8651 18.56L34.9008 17.333C34.9356 17.2918 34.9679 17.2486 34.9975 17.2035L36.9278 14.2618C38.296 12.1768 36.8002 9.40626 34.3063 9.40626ZM15.5091 21.3998C15.2128 21.3612 14.9572 21.1729 14.8324 20.9017L14.83 20.8964L10.8516 12.0938H34.3063C34.6626 12.0938 34.8763 12.4895 34.6808 12.7874L32.7949 15.6614L31.8115 16.8265C29.407 19.675 25.9629 21.4433 22.2468 21.7372C20.533 21.8727 18.8097 21.8292 17.1048 21.6074L15.5091 21.3998Z" fill="white"/>
<path d="M11.6458 33.1458C10.1616 33.1458 8.95832 34.3491 8.95832 35.8333C8.95832 37.3176 10.1616 38.5208 11.6458 38.5208C13.1301 38.5208 14.3333 37.3176 14.3333 35.8333C14.3333 34.3491 13.1301 33.1458 11.6458 33.1458Z" fill="white"/>
<path d="M28.6666 35.8333C28.6666 34.3491 29.8699 33.1458 31.3541 33.1458C32.8384 33.1458 34.0416 34.3491 34.0416 35.8333C34.0416 37.3176 32.8384 38.5208 31.3541 38.5208C29.8699 38.5208 28.6666 37.3176 28.6666 35.8333Z" fill="white"/>
</svg>
